0
SECTION
2
HEADER
9
$INSUNITS
70
4
9
$ACADVER
1
AC1014
9
$HANDSEED
5
FFFF
0
ENDSEC
0
SECTION
2
TABLES
0
TABLE
2
VPORT
5
8
100
AcDbSymbolTable
0
ENDTAB
0
TABLE
2
LTYPE
5
5
100
AcDbSymbolTable
0
LTYPE
5
14
100
AcDbSymbolTableRecord
100
AcDbLinetypeTableRecord
2
BYBLOCK
70
0
0
LTYPE
5
15
100
AcDbSymbolTableRecord
100
AcDbLinetypeTableRecord
2
BYLAYER
70
0
0
LTYPE
5
16
100
AcDbSymbolTableRecord
100
AcDbLinetypeTableRecord
2
DASHED
70
0
3
Dashed __ __ __ __ __ __ __ __ __ __ __ __ __ _
72
65
73
2
40
0.75
49
0.5
74
0
49
-0.25
74
0
0
ENDTAB
0
TABLE
2
LAYER
5
2
100
AcDbSymbolTable
70
2
0
LAYER
5
50
100
AcDbSymbolTableRecord
100
AcDbLayerTableRecord
2
0
70
0
62
7
6
CONTINUOUS
0
ENDTAB
0
TABLE
2
STYLE
5
3
100
AcDbSymbolTable
70
1
0
STYLE
5
11
100
AcDbSymbolTableRecord
100
AcDbTextStyleTableRecord
2
STANDARD
70
0
0
ENDTAB
0
TABLE
2
VIEW
5
6
100
AcDbSymbolTable
70
0
0
ENDTAB
0
TABLE
2
UCS
5
7
100
AcDbSymbolTable
70
0
0
ENDTAB
0
TABLE
2
APPID
5
9
100
AcDbSymbolTable
70
2
0
APPID
5
12
100
AcDbSymbolTableRecord
100
AcDbRegAppTableRecord
2
ACAD
70
0
0
ENDTAB
0
TABLE
2
DIMSTYLE
5
A
100
AcDbSymbolTable
70
1
0
ENDTAB
0
TABLE
2
BLOCK_RECORD
5
1
100
AcDbSymbolTable
70
1
0
BLOCK_RECORD
5
1F
100
AcDbSymbolTableRecord
100
AcDbBlockTableRecord
2
*MODEL_SPACE
0
BLOCK_RECORD
5
1B
100
AcDbSymbolTableRecord
100
AcDbBlockTableRecord
2
*PAPER_SPACE
0
ENDTAB
0
ENDSEC
0
SECTION
2
BLOCKS
0
BLOCK
5
20
100
AcDbEntity
100
AcDbBlockBegin
2
*MODEL_SPACE
0
ENDBLK
5
21
100
AcDbEntity
100
AcDbBlockEnd
0
BLOCK
5
1C
100
AcDbEntity
100
AcDbBlockBegin
2
*PAPER_SPACE
0
ENDBLK
5
1D
100
AcDbEntity
100
AcDbBlockEnd
0
ENDSEC
0
SECTION
2
ENTITIES
0
LWPOLYLINE
5
100
100
AcDbEntity
8
OUTER_PROFILES
100
AcDbPolyline
90
20
70
1
43
0.0
10
27.999999999995193
20
-14.059889109325132
10
27.999999999995193
20
2.5401108906752068
10
23.400000000000212
20
2.5401108906752068
10
23.400000000000208
20
-10.959889109325127
10
14
20
-10.959889109325127
10
14
20
10.737687461221434
10
0
20
10.737687461221434
10
0
20
-14.040053863827344
10
13.250000000000124
20
-14.040053863827344
10
13.250000000000124
20
-22.259889109324806
10
15.750000000000126
20
-22.259889109324806
10
15.750000000000124
20
-14.059889109325132
10
16.550000000000125
20
-14.059889109325132
10
16.550000000000125
20
-13.759889109325139
10
16.750000000000124
20
-13.759889109325139
10
16.750000000000124
20
-37.319446477793534
10
20.250000000000128
20
-37.319446477793534
10
20.250000000000128
20
-13.759889109325139
10
20.450000000000124
20
-13.759889109325139
10
20.450000000000124
20
-14.059889109325132
0
CIRCLE
5
101
100
AcDbEntity
8
INTERIOR_PROFILES
100
AcDbCircle
10
-25.699999999997697
20
0.74011089067520963
30
0
40
1.0999999999999988
210
0
220
0
230
-1
0
CIRCLE
5
102
100
AcDbEntity
8
INTERIOR_PROFILES
100
AcDbCircle
10
-1.9999999999999996
20
8.7376874612214372
30
0
40
1.100000000000001
210
0
220
0
230
-1
0
CIRCLE
5
103
100
AcDbEntity
8
INTERIOR_PROFILES
100
AcDbCircle
10
-12
20
8.7376874612214372
30
0
40
1.100000000000001
210
0
220
0
230
-1
0
LINE
5
104
100
AcDbEntity
8
BEND
100
AcDbLine
10
20.250000000000128
20
-32.843251806735083
30
-5.9541465371662836e-13
11
16.750000000000124
21
-32.843251806735083
31
-5.9541465371662836e-13
0
LINE
5
105
100
AcDbEntity
8
BEND
100
AcDbLine
10
20.250000000000128
20
-30.590862464618176
30
-6.7898036727603121e-13
11
16.750000000000124
21
-30.590862464618176
31
-6.7898036727603121e-13
0
LINE
5
106
100
AcDbEntity
8
BEND
100
AcDbLine
10
16.750000000000124
20
-14.086083780383607
30
1.6010939007925475e-13
11
20.250000000000128
21
-14.086083780383607
31
1.6010939007925475e-13
0
LINE
5
107
100
AcDbEntity
8
BEND
100
AcDbLine
10
14
20
-8.0718353171135995
30
-1.8210508938129741e-13
11
4.4408920985006262e-15
21
-8.0718353171135995
31
-1.8210508938129741e-13
0
LINE
5
108
100
AcDbEntity
8
BEND
100
AcDbLine
10
4.4408920985006262e-15
20
5.6902538921244794
30
4.9506049824413694e-15
11
14
21
5.6902538921244794
31
4.3475128487943143e-15
0
LINE
5
109
100
AcDbEntity
8
BEND
100
AcDbLine
10
16.750000000000124
20
-27.73847312250124
30
-5.3019854868615211e-13
11
20.250000000000128
21
-27.73847312250124
31
-5.285286723989851e-13
0
LINE
5
110
100
AcDbEntity
8
BEND
100
AcDbLine
10
4.4408920985006262e-15
20
-0.075398223686158741
30
-3.5317824537065804e-15
11
14
21
-0.075398223686158741
31
-3.5317824537065804e-15
0
LINE
5
111
100
AcDbEntity
8
BEND_EXTENT
100
AcDbLine
10
20.250000000000128
20
-33.069446477793534
30
-5.9063864910058328e-13
11
16.750000000000124
21
-33.069446477793534
31
-5.9063864910058328e-13
0
LINE
5
112
100
AcDbEntity
8
BEND_EXTENT
100
AcDbLine
10
16.750000000000124
20
-32.617057135676617
30
-6.0396132539608516e-13
11
20.250000000000128
21
-32.617057135676617
31
-6.0396132539608516e-13
0
LINE
5
113
100
AcDbEntity
8
BEND_EXTENT
100
AcDbLine
10
20.250000000000128
20
-30.817057135676606
30
-6.7501559897209518e-13
11
16.750000000000124
21
-30.817057135676606
31
-6.7501559897209518e-13
0
LINE
5
114
100
AcDbEntity
8
BEND_EXTENT
100
AcDbLine
10
16.750000000000124
20
-30.364667793559725
30
-6.8389738316909643e-13
11
20.250000000000128
21
-30.364667793559725
31
-6.8389738316909643e-13
0
LINE
5
115
100
AcDbEntity
8
BEND_EXTENT
100
AcDbLine
10
20.250000000000128
20
-27.964667793559698
30
-5.3956838996782608e-13
11
16.750000000000124
21
-27.964667793559698
31
-5.3068660577082483e-13
0
LINE
5
116
100
AcDbEntity
8
BEND_EXTENT
100
AcDbLine
10
16.750000000000124
20
-27.512278451442782
30
-5.1514348342607263e-13
11
20.250000000000128
21
-27.512278451442782
31
-5.1514348342607263e-13
0
LINE
5
117
100
AcDbEntity
8
BEND_EXTENT
100
AcDbLine
10
20.250000000000128
20
-14.312278451442062
30
1.4210854715202004e-13
11
16.750000000000124
21
-14.312278451442062
31
1.4210854715202004e-13
0
LINE
5
118
100
AcDbEntity
8
BEND_EXTENT
100
AcDbLine
10
16.750000000000124
20
-13.859889109325136
30
1.7846835120849391e-13
11
20.250000000000128
21
-13.859889109325136
31
1.7846835120849391e-13
0
LINE
5
119
100
AcDbEntity
8
BEND_EXTENT
100
AcDbLine
10
14
20
-8.1472335407997587
30
-1.8887669206435476e-13
11
4.4408920985006262e-15
21
-8.1472335407997587
31
-1.8887669206435476e-13
0
LINE
5
120
100
AcDbEntity
8
BEND_EXTENT
100
AcDbLine
10
0
20
-7.9964370934274243
30
-1.5987211554602254e-13
11
14
21
-7.9964370934274243
31
-1.5987211554602254e-13
0
LINE
5
121
100
AcDbEntity
8
BEND_EXTENT
100
AcDbLine
10
14
20
-0.15079644737232556
30
-1.3322676295501878e-14
11
4.4408920985006262e-15
21
-0.15079644737232556
31
-1.3322676295501878e-14
0
LINE
5
122
100
AcDbEntity
8
BEND_EXTENT
100
AcDbLine
10
0
20
0
30
0
11
14
21
0
31
0
0
LINE
5
123
100
AcDbEntity
8
BEND_EXTENT
100
AcDbLine
10
14
20
4.9928203230275603
30
0
11
4.4408920985006262e-15
21
4.9928203230275603
31
0
0
LINE
5
124
100
AcDbEntity
8
BEND_EXTENT
100
AcDbLine
10
0
20
6.387687461221434
30
0
11
14
21
6.387687461221434
31
0
0
ENDSEC
0
SECTION
2
OBJECTS
0
DICTIONARY
5
C
100
AcDbDictionary
3
ACAD_GROUP
350
D
3
ACAD_MLINESTYLE
350
17
0
DICTIONARY
5
D
100
AcDbDictionary
0
DICTIONARY
5
1A
330
C
100
AcDbDictionary
0
DICTIONARY
5
17
100
AcDbDictionary
0
ENDSEC
0
EOF
